<?xml version="1.0" standalone="no"?>
<!DOCTYPE svg PUBLIC "-//W3C//DTD SVG 20010904//EN"
 "http://www.w3.org/TR/2001/REC-SVG-20010904/DTD/svg10.dtd">
<svg version="1.0" xmlns="http://www.w3.org/2000/svg"
 width="32.000000pt" height="32.000000pt" viewBox="0 0 32.000000 32.000000"
 preserveAspectRatio="xMidYMid meet">

<g transform="translate(0.000000,32.000000) scale(0.100000,-0.100000)"
fill="#000000" stroke="none">
<path d="M66 299 c-14 -11 -26 -29 -26 -40 0 -18 8 -19 120 -19 112 0 120 1
120 19 0 11 -12 29 -26 40 -38 30 -150 30 -188 0z"/>
<path d="M37 224 c-4 -4 -7 -21 -7 -38 0 -17 -7 -39 -14 -49 -13 -16 -11 -25
12 -68 29 -57 46 -69 86 -62 23 5 27 10 23 29 -4 21 0 24 23 24 24 0 27 -3 22
-27 -2 -16 -1 -25 3 -21 4 4 16 3 26 -3 28 -15 52 3 81 60 23 42 24 52 13 68
-7 11 -15 35 -17 54 l-3 34 -121 3 c-66 1 -123 -1 -127 -4z m103 -23 c0 -14
-50 -43 -66 -37 -8 3 -14 15 -14 26 0 17 6 20 40 20 22 0 40 -4 40 -9z m120
-11 c0 -29 -24 -35 -54 -15 -37 24 -32 35 14 35 34 0 40 -3 40 -20z m-90 -60
c0 -5 -4 -10 -10 -10 -5 0 -10 5 -10 10 0 6 5 10 10 10 6 0 10 -4 10 -10z
m-30 -4 c0 -3 -4 -8 -10 -11 -5 -3 -10 -1 -10 4 0 6 5 11 10 11 6 0 10 -2 10
-4z m60 -6 c0 -5 -2 -10 -4 -10 -3 0 -8 5 -11 10 -3 6 -1 10 4 10 6 0 11 -4
11 -10z m-100 -75 c0 -8 -7 -15 -15 -15 -16 0 -20 12 -8 23 11 12 23 8 23 -8z
m148 -3 c2 -7 -3 -12 -12 -12 -9 0 -16 7 -16 16 0 17 22 14 28 -4z"/>
<path d="M150 30 c0 -11 5 -20 10 -20 6 0 10 9 10 20 0 11 -4 20 -10 20 -5 0
-10 -9 -10 -20z"/>
</g>
</svg>
